{
  "accessors": [
    {
      "bufferView": 2,
      "componentType": 5126,
      "count": 26974,
      "max": [
        0.28238511085510254,
        0.38684821128845215,
        0.3008864223957062
      ],
      "min": [
        -0.2885083258152008,
        -0.29622772336006165,
        -0.24625828862190247
      ],
      "type": "VEC3"
    },
    {
      "bufferView": 2,
      "byteOffset": 323688,
      "componentType": 5126,
      "count": 26974,
      "max": [
        0.9993507862091064,
        0.9999021291732788,
        0.9999653697013855
      ],
      "min": [
        -0.9993430972099304,
        -0.9999476671218872,
        -0.9999902844429016
      ],
      "type": "VEC3"
    },
    {
      "bufferView": 1,
      "componentType": 5126,
      "count": 26974,
      "max": [
        0.923382580280304,
        0.9999975562095642
      ],
      "min": [
        1.2753813280141912e-05,
        7.350654777837917e-05
      ],
      "type": "VEC2"
    },
    {
      "bufferView": 0,
      "componentType": 5125,
      "count": 150000,
      "type": "SCALAR"
    }
  ],
  "asset": {
    "extras": {
      "author": "Moshe Caine (https://sketchfab.com/mosheca)",
      "license": "CC-BY-4.0 (http://creativecommons.org/licenses/by/4.0/)",
      "source": "https://sketchfab.com/3d-models/unripe-pomegranate-itseez3d-9a4be232755b4608867a9d2d94dae7ed",
      "title": "Unripe Pomegranate -  itSeez3D"
    },
    "generator": "Sketchfab-11.70.0",
    "version": "2.0"
  },
  "bufferViews": [
    {
      "buffer": 0,
      "byteLength": 600000,
      "name": "floatBufferViews",
      "target": 34963
    },
    {
      "buffer": 0,
      "byteLength": 215792,
      "byteOffset": 600000,
      "byteStride": 8,
      "name": "floatBufferViews",
      "target": 34962
    },
    {
      "buffer": 0,
      "byteLength": 647376,
      "byteOffset": 815792,
      "byteStride": 12,
      "name": "floatBufferViews",
      "target": 34962
    }
  ],
  "buffers": [
    {
      "byteLength": 1463168,
      "uri": "scene.bin"
    }
  ],
  "images": [
    {
      "uri": "textures/material_baseColor.png"
    }
  ],
  "materials": [
    {
      "doubleSided": true,
      "name": "material",
      "pbrMetallicRoughness": {
        "baseColorTexture": {
          "index": 0
        },
        "metallicFactor": 0.0,
        "roughnessFactor": 0.48176762775590787
      }
    }
  ],
  "meshes": [
    {
      "name": "Object_0",
      "primitives": [
        {
          "attributes": {
            "NORMAL": 1,
            "POSITION": 0,
            "TEXCOORD_0": 2
          },
          "indices": 3,
          "material": 0,
          "mode": 4
        }
      ]
    }
  ],
  "nodes": [
    {
      "children": [
        1
      ],
      "matrix": [
        -0.7307291626930237,
        0.6826025247573853,
        -0.00941950362175688,
        0.0,
        -0.6825552582740784,
        -0.7307896614074707,
        -0.00804900657385604,
        0.0,
        -0.012377947568893433,
        0.0005476882797663674,
        0.9999232292175293,
        0.0,
        0.02596638910472393,
        0.06250108778476716,
        -0.07228635251522063,
        1.0
      ],
      "name": "Sketchfab_model"
    },
    {
      "children": [
        2
      ],
      "name": "baked_mesh.obj.cleaner.materialmerger.gles"
    },
    {
      "mesh": 0,
      "name": "Object_2"
    }
  ],
  "samplers": [
    {
      "magFilter": 9729,
      "minFilter": 9987,
      "wrapS": 10497,
      "wrapT": 10497
    }
  ],
  "scene": 0,
  "scenes": [
    {
      "name": "Sketchfab_Scene",
      "nodes": [
        0
      ]
    }
  ],
  "textures": [
    {
      "sampler": 0,
      "source": 0
    }
  ]
}
