{
  "accessors": [
    {
      "bufferView": 2,
      "componentType": 5126,
      "count": 65532,
      "max": [
        13.473112106323242,
        -0.039585314691066742,
        10.418724060058594
      ],
      "min": [
        -9.8493356704711914,
        -27.098913192749023,
        -13.283736228942871
      ],
      "type": "VEC3"
    },
    {
      "bufferView": 2,
      "byteOffset": 786384,
      "componentType": 5126,
      "count": 65532,
      "max": [
        0.9999966025352478,
        0.99999988079071045,
        0.99995148181915283
      ],
      "min": [
        -0.99999994039535522,
        -0.99998456239700317,
        -0.99999749660491943
      ],
      "type": "VEC3"
    },
    {
      "bufferView": 1,
      "componentType": 5126,
      "count": 65532,
      "max": [
        0.99975597858428955,
        0.99975597858428955
      ],
      "min": [
        0.00024399999529123306,
        0.00024399999529123306
      ],
      "type": "VEC2"
    },
    {
      "bufferView": 0,
      "componentType": 5125,
      "count": 250731,
      "max": [
        65531
      ],
      "min": [
        0
      ],
      "type": "SCALAR"
    },
    {
      "bufferView": 2,
      "byteOffset": 1572768,
      "componentType": 5126,
      "count": 10490,
      "max": [
        7.8231568336486816,
        -0.61104297637939453,
        9.9198818206787109
      ],
      "min": [
        -10.233845710754395,
        -26.987615585327148,
        -13.196983337402344
      ],
      "type": "VEC3"
    },
    {
      "bufferView": 2,
      "byteOffset": 1698648,
      "componentType": 5126,
      "count": 10490,
      "max": [
        0.99720323085784912,
        0.99973762035369873,
        0.9997219443321228
      ],
      "min": [
        -0.99996960163116455,
        -0.99944692850112915,
        -0.99933236837387085
      ],
      "type": "VEC3"
    },
    {
      "bufferView": 1,
      "byteOffset": 524256,
      "componentType": 5126,
      "count": 10490,
      "max": [
        0.99975597858428955,
        0.99975597858428955
      ],
      "min": [
        0.00024399999529123306,
        0.00024399999529123306
      ],
      "type": "VEC2"
    },
    {
      "bufferView": 0,
      "byteOffset": 1002924,
      "componentType": 5125,
      "count": 25419,
      "max": [
        10489
      ],
      "min": [
        0
      ],
      "type": "SCALAR"
    }
  ],
  "asset": {
    "extras": {
      "author": "E.Uralsky (https://sketchfab.com/uralsky)",
      "license": "CC-BY-4.0 (http://creativecommons.org/licenses/by/4.0/)",
      "source": "https://sketchfab.com/3d-models/broccoli-3d-scan-0acdfc046a5149cc890c992da89b48c0",
      "title": "Broccoli (3d Scan)"
    },
    "generator": "Sketchfab-9.73.0",
    "version": "2.0"
  },
  "bufferViews": [
    {
      "buffer": 0,
      "byteLength": 1104600,
      "byteOffset": 0,
      "name": "floatBufferViews",
      "target": 34963
    },
    {
      "buffer": 0,
      "byteLength": 608176,
      "byteOffset": 1104600,
      "byteStride": 8,
      "name": "floatBufferViews",
      "target": 34962
    },
    {
      "buffer": 0,
      "byteLength": 1824528,
      "byteOffset": 1712776,
      "byteStride": 12,
      "name": "floatBufferViews",
      "target": 34962
    }
  ],
  "buffers": [
    {
      "byteLength": 3537304,
      "uri": "scene.bin"
    }
  ],
  "extensionsUsed": [
    "KHR_materials_unlit"
  ],
  "images": [
    {
      "uri": "textures/capusta_low_Material_u1_v1_baseColor.jpeg"
    }
  ],
  "materials": [
    {
      "doubleSided": true,
      "extensions": {
        "KHR_materials_unlit": {}
      },
      "name": "capusta_low_Material_u1_v1",
      "pbrMetallicRoughness": {
        "baseColorFactor": [
          0.87117481105861894,
          0.87117481105861894,
          0.87117481105861894,
          1
        ],
        "baseColorTexture": {
          "index": 0,
          "texCoord": 0
        },
        "metallicFactor": 0,
        "roughnessFactor": 1
      }
    }
  ],
  "meshes": [
    {
      "primitives": [
        {
          "attributes": {
            "NORMAL": 1,
            "POSITION": 0,
            "TEXCOORD_0": 2
          },
          "indices": 3,
          "material": 0,
          "mode": 4
        }
      ]
    },
    {
      "primitives": [
        {
          "attributes": {
            "NORMAL": 5,
            "POSITION": 4,
            "TEXCOORD_0": 6
          },
          "indices": 7,
          "material": 0,
          "mode": 4
        }
      ]
    }
  ],
  "nodes": [
    {
      "children": [
        1
      ],
      "name": "RootNode (gltf orientation matrix)",
      "rotation": [
        -0.70710678118654746,
        -0,
        -0,
        0.70710678118654757
      ]
    },
    {
      "children": [
        2
      ],
      "matrix": [
        1,
        0,
        0,
        0,
        0,
        -0.0022855678107589483,
        -0.99999737739562988,
        0,
        0,
        0.99999737739562988,
        -0.0022855678107589483,
        0,
        0,
        -12.167793273925781,
        -15.004946708679199,
        1
      ],
      "name": "RootNode (model correction matrix)"
    },
    {
      "children": [
        3,
        4
      ],
      "name": "capusta_low.obj.cleaner.materialmerger.gles"
    },
    {
      "mesh": 0,
      "name": ""
    },
    {
      "mesh": 1,
      "name": ""
    }
  ],
  "samplers": [
    {
      "magFilter": 9729,
      "minFilter": 9987,
      "wrapS": 10497,
      "wrapT": 10497
    }
  ],
  "scene": 0,
  "scenes": [
    {
      "name": "OSG_Scene",
      "nodes": [
        0
      ]
    }
  ],
  "textures": [
    {
      "sampler": 0,
      "source": 0
    }
  ]
}

