{
  "accessors": [
    {
      "bufferView": 2,
      "componentType": 5126,
      "count": 9366,
      "max": [
        0.98066002130508423,
        0.9815099835395813,
        0.99353998899459839
      ],
      "min": [
        -0.99260997772216797,
        -0.97596997022628784,
        -0.98343002796173096
      ],
      "type": "VEC3"
    },
    {
      "bufferView": 2,
      "byteOffset": 112392,
      "componentType": 5126,
      "count": 9366,
      "max": [
        0.99889147281646729,
        0.99932914972305298,
        0.99999672174453735
      ],
      "min": [
        -0.9997134804725647,
        -0.9999815821647644,
        -0.99994188547134399
      ],
      "type": "VEC3"
    },
    {
      "bufferView": 3,
      "componentType": 5126,
      "count": 9366,
      "max": [
        0.99998599290847778,
        1,
        0.762828528881073,
        1
      ],
      "min": [
        -0.9999808669090271,
        -0.99999147653579712,
        -0.71129071712493896,
        1
      ],
      "type": "VEC4"
    },
    {
      "bufferView": 1,
      "componentType": 5126,
      "count": 9366,
      "max": [
        0.99514001607894897,
        0.99981999397277832
      ],
      "min": [
        0.00015999999595806003,
        0.00015999999595806003
      ],
      "type": "VEC2"
    },
    {
      "bufferView": 0,
      "componentType": 5125,
      "count": 53760,
      "max": [
        9365
      ],
      "min": [
        0
      ],
      "type": "SCALAR"
    },
    {
      "bufferView": 2,
      "byteOffset": 224784,
      "componentType": 5126,
      "count": 755,
      "max": [
        0.067110002040863037,
        0.067110002040863037,
        1.0153100490570068
      ],
      "min": [
        -0.067110002040863037,
        -0.067110002040863037,
        0.94813001155853271
      ],
      "type": "VEC3"
    },
    {
      "bufferView": 2,
      "byteOffset": 233844,
      "componentType": 5126,
      "count": 755,
      "max": [
        1,
        1,
        1
      ],
      "min": [
        -1,
        -1,
        -0.59018903970718384
      ],
      "type": "VEC3"
    },
    {
      "bufferView": 3,
      "byteOffset": 149856,
      "componentType": 5126,
      "count": 755,
      "max": [
        0.99996614456176758,
        0.9837842583656311,
        0.99980324506759644,
        1
      ],
      "min": [
        -0.62431395053863525,
        -0.9888187050819397,
        -0.91384321451187134,
        1
      ],
      "type": "VEC4"
    },
    {
      "bufferView": 1,
      "byteOffset": 74928,
      "componentType": 5126,
      "count": 755,
      "max": [
        0.99164998531341553,
        0.99447000026702881
      ],
      "min": [
        0.81041997671127319,
        0.80544000864028931
      ],
      "type": "VEC2"
    },
    {
      "bufferView": 0,
      "byteOffset": 215040,
      "componentType": 5125,
      "count": 4032,
      "max": [
        754
      ],
      "min": [
        0
      ],
      "type": "SCALAR"
    }
  ],
  "asset": {
    "extras": {
      "author": "Sam (https://sketchfab.com/samhalabi)",
      "license": "CC-BY-4.0 (http://creativecommons.org/licenses/by/4.0/)",
      "source": "https://sketchfab.com/models/e2485d989591462c85c4eced4a6cec4b",
      "title": "Realistic Orange"
    },
    "generator": "Sketchfab-3.19.1",
    "version": "2.0"
  },
  "bufferViews": [
    {
      "buffer": 0,
      "byteLength": 231168,
      "byteOffset": 0,
      "name": "floatBufferViews",
      "target": 34963
    },
    {
      "buffer": 0,
      "byteLength": 80968,
      "byteOffset": 231168,
      "byteStride": 8,
      "name": "floatBufferViews",
      "target": 34962
    },
    {
      "buffer": 0,
      "byteLength": 242904,
      "byteOffset": 312136,
      "byteStride": 12,
      "name": "floatBufferViews",
      "target": 34962
    },
    {
      "buffer": 0,
      "byteLength": 161936,
      "byteOffset": 555040,
      "byteStride": 16,
      "name": "floatBufferViews",
      "target": 34962
    }
  ],
  "buffers": [
    {
      "byteLength": 716976,
      "uri": "scene.bin"
    }
  ],
  "images": [
    {
      "uri": "textures/Material.004_baseColor.png"
    },
    {
      "uri": "textures/Material.002_baseColor.png"
    },
    {
      "uri": "textures/Material.002_normal.png"
    }
  ],
  "materials": [
    {
      "doubleSided": true,
      "emissiveFactor": [
        0,
        0,
        0
      ],
      "name": "Material.002",
      "normalTexture": {
        "index": 2,
        "scale": 1,
        "texCoord": 0
      },
      "pbrMetallicRoughness": {
        "baseColorFactor": [
          1,
          1,
          1,
          1
        ],
        "baseColorTexture": {
          "index": 1,
          "texCoord": 0
        },
        "metallicFactor": 0,
        "roughnessFactor": 0.59999999999999998
      }
    },
    {
      "doubleSided": true,
      "emissiveFactor": [
        0,
        0,
        0
      ],
      "name": "Material.004",
      "pbrMetallicRoughness": {
        "baseColorFactor": [
          1,
          1,
          1,
          1
        ],
        "baseColorTexture": {
          "index": 0,
          "texCoord": 0
        },
        "metallicFactor": 0,
        "roughnessFactor": 0.59999999999999998
      }
    }
  ],
  "meshes": [
    {
      "name": "Sphere_0",
      "primitives": [
        {
          "attributes": {
            "NORMAL": 1,
            "POSITION": 0,
            "TANGENT": 2,
            "TEXCOORD_0": 3
          },
          "indices": 4,
          "material": 0,
          "mode": 4
        }
      ]
    },
    {
      "name": "Sphere_1",
      "primitives": [
        {
          "attributes": {
            "NORMAL": 6,
            "POSITION": 5,
            "TANGENT": 7,
            "TEXCOORD_0": 8
          },
          "indices": 9,
          "material": 1,
          "mode": 4
        }
      ]
    }
  ],
  "nodes": [
    {
      "children": [
        1
      ],
      "name": "RootNode (gltf orientation matrix)",
      "rotation": [
        -0.70710678118654746,
        -0,
        -0,
        0.70710678118654757
      ]
    },
    {
      "children": [
        2
      ],
      "name": "RootNode (model correction matrix)"
    },
    {
      "children": [
        3,
        5,
        8
      ],
      "name": "Root"
    },
    {
      "children": [
        4
      ],
      "matrix": [
        -0.29086000000000006,
        0.95517000000000007,
        -0.05519000000000001,
        0,
        -0.77110000000000001,
        -0.19988000000000003,
        0.60452000000000006,
        0,
        0.56639000000000006,
        0.21839000000000003,
        0.7946700000000001,
        0,
        4.0762500000000008,
        1.00545,
        5.9038600000000008,
        1
      ],
      "name": "Lamp"
    },
    {
      "name": "Lamp"
    },
    {
      "children": [
        6,
        7
      ],
      "name": "Sphere"
    },
    {
      "mesh": 0,
      "name": "Sphere_0"
    },
    {
      "mesh": 1,
      "name": "Sphere_1"
    },
    {
      "children": [
        9
      ],
      "matrix": [
        1,
        0,
        0,
        0,
        0,
        1,
        0,
        0,
        0,
        0,
        1,
        0,
        1.69272,
        0.024840000000000001,
        1.09067,
        1
      ],
      "name": "Hemi"
    },
    {
      "name": "Hemi"
    }
  ],
  "samplers": [
    {
      "magFilter": 9729,
      "minFilter": 9987,
      "wrapS": 10497,
      "wrapT": 10497
    }
  ],
  "scene": 0,
  "scenes": [
    {
      "name": "OSG_Scene",
      "nodes": [
        0
      ]
    }
  ],
  "textures": [
    {
      "sampler": 0,
      "source": 0
    },
    {
      "sampler": 0,
      "source": 1
    },
    {
      "sampler": 0,
      "source": 2
    }
  ]
}

