{
  "accessors": [
    {
      "bufferView": 2,
      "componentType": 5126,
      "count": 65532,
      "max": [
        1.4406369924545288,
        -0.10666099935770035,
        0.8146129846572876
      ],
      "min": [
        -0.8175830245018005,
        -2.7984540462493896,
        -1.4901340007781982
      ],
      "type": "VEC3"
    },
    {
      "bufferView": 2,
      "byteOffset": 786384,
      "componentType": 5126,
      "count": 65532,
      "max": [
        0.999837338924408,
        0.9993034601211548,
        0.998113751411438
      ],
      "min": [
        -0.9994821548461914,
        -0.9999971985816956,
        -0.9800782203674316
      ],
      "type": "VEC3"
    },
    {
      "bufferView": 1,
      "componentType": 5126,
      "count": 65532,
      "max": [
        0.9999309778213501,
        0.9964110255241394
      ],
      "min": [
        0.00018899999849963933,
        0.08303900063037872
      ],
      "type": "VEC2"
    },
    {
      "bufferView": 0,
      "componentType": 5125,
      "count": 346035,
      "type": "SCALAR"
    },
    {
      "bufferView": 2,
      "byteOffset": 1572768,
      "componentType": 5126,
      "count": 65532,
      "max": [
        1.442991018295288,
        -0.19638000428676605,
        0.29823899269104004
      ],
      "min": [
        -0.8375009894371033,
        -2.792752981185913,
        -1.753764033317566
      ],
      "type": "VEC3"
    },
    {
      "bufferView": 2,
      "byteOffset": 2359152,
      "componentType": 5126,
      "count": 65532,
      "max": [
        0.9999998211860657,
        0.999287486076355,
        0.9974135756492615
      ],
      "min": [
        -0.9990127086639404,
        -0.9999971985816956,
        -0.9999628067016602
      ],
      "type": "VEC3"
    },
    {
      "bufferView": 1,
      "byteOffset": 524256,
      "componentType": 5126,
      "count": 65532,
      "max": [
        0.9999750256538391,
        0.9785869717597961
      ],
      "min": [
        0.001699000014923513,
        0.0
      ],
      "type": "VEC2"
    },
    {
      "bufferView": 0,
      "byteOffset": 1384140,
      "componentType": 5125,
      "count": 337302,
      "type": "SCALAR"
    },
    {
      "bufferView": 2,
      "byteOffset": 3145536,
      "componentType": 5126,
      "count": 65532,
      "max": [
        0.5592479705810547,
        -0.4582259953022003,
        0.7177720069885254
      ],
      "min": [
        -1.3062009811401367,
        -2.7958970069885254,
        -1.8320610523223877
      ],
      "type": "VEC3"
    },
    {
      "bufferView": 2,
      "byteOffset": 3931920,
      "componentType": 5126,
      "count": 65532,
      "max": [
        0.9994941353797913,
        0.9997579455375671,
        0.9996343851089478
      ],
      "min": [
        -0.9999968409538269,
        -0.9999855756759644,
        -0.9999629259109497
      ],
      "type": "VEC3"
    },
    {
      "bufferView": 1,
      "byteOffset": 1048512,
      "componentType": 5126,
      "count": 65532,
      "max": [
        0.9999930262565613,
        0.9906910061836243
      ],
      "min": [
        0.0008440000237897038,
        0.0018029999919235706
      ],
      "type": "VEC2"
    },
    {
      "bufferView": 0,
      "byteOffset": 2733348,
      "componentType": 5125,
      "count": 323361,
      "type": "SCALAR"
    },
    {
      "bufferView": 2,
      "byteOffset": 4718304,
      "componentType": 5126,
      "count": 65532,
      "max": [
        0.569828987121582,
        -0.09173999726772308,
        0.5976939797401428
      ],
      "min": [
        -1.305614948272705,
        -2.798798084259033,
        -1.797659993171692
      ],
      "type": "VEC3"
    },
    {
      "bufferView": 2,
      "byteOffset": 5504688,
      "componentType": 5126,
      "count": 65532,
      "max": [
        0.9987440705299377,
        0.9999997019767761,
        0.9998161196708679
      ],
      "min": [
        -0.9999890327453613,
        -0.9999881386756897,
        -0.9999895095825195
      ],
      "type": "VEC3"
    },
    {
      "bufferView": 1,
      "byteOffset": 1572768,
      "componentType": 5126,
      "count": 65532,
      "max": [
        0.9999849796295166,
        0.9964309930801392
      ],
      "min": [
        0.0002460000105202198,
        0.00036299999919719994
      ],
      "type": "VEC2"
    },
    {
      "bufferView": 0,
      "byteOffset": 4026792,
      "componentType": 5125,
      "count": 321975,
      "type": "SCALAR"
    },
    {
      "bufferView": 2,
      "byteOffset": 6291072,
      "componentType": 5126,
      "count": 65532,
      "max": [
        1.0661289691925049,
        -0.45749399065971375,
        1.6545729637145996
      ],
      "min": [
        -1.2709020376205444,
        -2.7838029861450195,
        -1.4471310377120972
      ],
      "type": "VEC3"
    },
    {
      "bufferView": 2,
      "byteOffset": 7077456,
      "componentType": 5126,
      "count": 65532,
      "max": [
        0.9970846772193909,
        0.9994950294494629,
        0.9996582865715027
      ],
      "min": [
        -0.9940569400787354,
        -0.9996486306190491,
        -0.9981720447540283
      ],
      "type": "VEC3"
    },
    {
      "bufferView": 1,
      "byteOffset": 2097024,
      "componentType": 5126,
      "count": 65532,
      "max": [
        0.9999930262565613,
        0.9964150190353394
      ],
      "min": [
        0.0003760000108741224,
        0.054159000515937805
      ],
      "type": "VEC2"
    },
    {
      "bufferView": 0,
      "byteOffset": 5314692,
      "componentType": 5125,
      "count": 337851,
      "type": "SCALAR"
    },
    {
      "bufferView": 2,
      "byteOffset": 7863840,
      "componentType": 5126,
      "count": 65532,
      "max": [
        0.9233719706535339,
        -0.10377100110054016,
        1.9343849420547485
      ],
      "min": [
        -1.0008519887924194,
        -1.6656650304794312,
        0.08444099873304367
      ],
      "type": "VEC3"
    },
    {
      "bufferView": 2,
      "byteOffset": 8650224,
      "componentType": 5126,
      "count": 65532,
      "max": [
        0.9998729825019836,
        0.9999209642410278,
        0.9999946355819702
      ],
      "min": [
        -0.9999761581420898,
        -0.9999358654022217,
        -0.9997689723968506
      ],
      "type": "VEC3"
    },
    {
      "bufferView": 1,
      "byteOffset": 2621280,
      "componentType": 5126,
      "count": 65532,
      "max": [
        0.9999889731407166,
        0.9938610196113586
      ],
      "min": [
        7.79999973019585e-05,
        0.008596999570727348
      ],
      "type": "VEC2"
    },
    {
      "bufferView": 0,
      "byteOffset": 6666096,
      "componentType": 5125,
      "count": 340821,
      "type": "SCALAR"
    },
    {
      "bufferView": 2,
      "byteOffset": 9436608,
      "componentType": 5126,
      "count": 65532,
      "max": [
        1.1972229480743408,
        -0.20321300625801086,
        1.8981460332870483
      ],
      "min": [
        -1.2922430038452148,
        -2.672261953353882,
        0.0539340004324913
      ],
      "type": "VEC3"
    },
    {
      "bufferView": 2,
      "byteOffset": 10222992,
      "componentType": 5126,
      "count": 65532,
      "max": [
        0.9995923042297363,
        0.9998701810836792,
        0.9996299147605896
      ],
      "min": [
        -0.9997395277023315,
        -0.9999914765357971,
        -0.9999892711639404
      ],
      "type": "VEC3"
    },
    {
      "bufferView": 1,
      "byteOffset": 3145536,
      "componentType": 5126,
      "count": 65532,
      "max": [
        0.9999939799308777,
        0.9964269995689392
      ],
      "min": [
        0.0003459999861661345,
        0.0008539999835193157
      ],
      "type": "VEC2"
    },
    {
      "bufferView": 0,
      "byteOffset": 8029380,
      "componentType": 5125,
      "count": 288816,
      "type": "SCALAR"
    },
    {
      "bufferView": 2,
      "byteOffset": 11009376,
      "componentType": 5126,
      "count": 54613,
      "max": [
        1.4269299507141113,
        -0.10677500069141388,
        1.339100956916809
      ],
      "min": [
        -1.2162870168685913,
        -2.697932004928589,
        -1.4453550577163696
      ],
      "type": "VEC3"
    },
    {
      "bufferView": 2,
      "byteOffset": 11664732,
      "componentType": 5126,
      "count": 54613,
      "max": [
        0.9999727010726929,
        0.9999730587005615,
        0.9996265172958374
      ],
      "min": [
        -0.9991413354873657,
        -0.9992021918296814,
        -0.9988927841186523
      ],
      "type": "VEC3"
    },
    {
      "bufferView": 1,
      "byteOffset": 3669792,
      "componentType": 5126,
      "count": 54613,
      "max": [
        0.9999799728393555,
        0.9938910007476807
      ],
      "min": [
        0.0007110000005923212,
        0.026794999837875366
      ],
      "type": "VEC2"
    },
    {
      "bufferView": 0,
      "byteOffset": 9184644,
      "componentType": 5125,
      "count": 226182,
      "type": "SCALAR"
    }
  ],
  "asset": {
    "extras": {
      "author": "Surfin' USSR (https://sketchfab.com/hiroyuki.ogata1)",
      "license": "CC-BY-4.0 (http://creativecommons.org/licenses/by/4.0/)",
      "source": "https://sketchfab.com/3d-models/red-onion-ac1c4812513a408cbe1b8bea3ce517fb",
      "title": "Red Onion"
    },
    "generator": "Sketchfab-11.59.2",
    "version": "2.0"
  },
  "bufferViews": [
    {
      "buffer": 0,
      "byteLength": 10089372,
      "name": "floatBufferViews",
      "target": 34963
    },
    {
      "buffer": 0,
      "byteLength": 4106696,
      "byteOffset": 10089372,
      "byteStride": 8,
      "name": "floatBufferViews",
      "target": 34962
    },
    {
      "buffer": 0,
      "byteLength": 12320088,
      "byteOffset": 14196068,
      "byteStride": 12,
      "name": "floatBufferViews",
      "target": 34962
    }
  ],
  "buffers": [
    {
      "byteLength": 26516156,
      "uri": "scene.bin"
    }
  ],
  "images": [
    {
      "uri": "textures/RedOnion_baseColor.png"
    }
  ],
  "materials": [
    {
      "doubleSided": true,
      "name": "RedOnion",
      "pbrMetallicRoughness": {
        "baseColorTexture": {
          "index": 0
        },
        "metallicFactor": 0.0,
        "roughnessFactor": 0.3361195726854301
      }
    }
  ],
  "meshes": [
    {
      "name": "Object_0",
      "primitives": [
        {
          "attributes": {
            "NORMAL": 1,
            "POSITION": 0,
            "TEXCOORD_0": 2
          },
          "indices": 3,
          "material": 0,
          "mode": 4
        }
      ]
    },
    {
      "name": "Object_1",
      "primitives": [
        {
          "attributes": {
            "NORMAL": 5,
            "POSITION": 4,
            "TEXCOORD_0": 6
          },
          "indices": 7,
          "material": 0,
          "mode": 4
        }
      ]
    },
    {
      "name": "Object_2",
      "primitives": [
        {
          "attributes": {
            "NORMAL": 9,
            "POSITION": 8,
            "TEXCOORD_0": 10
          },
          "indices": 11,
          "material": 0,
          "mode": 4
        }
      ]
    },
    {
      "name": "Object_3",
      "primitives": [
        {
          "attributes": {
            "NORMAL": 13,
            "POSITION": 12,
            "TEXCOORD_0": 14
          },
          "indices": 15,
          "material": 0,
          "mode": 4
        }
      ]
    },
    {
      "name": "Object_4",
      "primitives": [
        {
          "attributes": {
            "NORMAL": 17,
            "POSITION": 16,
            "TEXCOORD_0": 18
          },
          "indices": 19,
          "material": 0,
          "mode": 4
        }
      ]
    },
    {
      "name": "Object_5",
      "primitives": [
        {
          "attributes": {
            "NORMAL": 21,
            "POSITION": 20,
            "TEXCOORD_0": 22
          },
          "indices": 23,
          "material": 0,
          "mode": 4
        }
      ]
    },
    {
      "name": "Object_6",
      "primitives": [
        {
          "attributes": {
            "NORMAL": 25,
            "POSITION": 24,
            "TEXCOORD_0": 26
          },
          "indices": 27,
          "material": 0,
          "mode": 4
        }
      ]
    },
    {
      "name": "Object_7",
      "primitives": [
        {
          "attributes": {
            "NORMAL": 29,
            "POSITION": 28,
            "TEXCOORD_0": 30
          },
          "indices": 31,
          "material": 0,
          "mode": 4
        }
      ]
    }
  ],
  "nodes": [
    {
      "children": [
        1
      ],
      "matrix": [
        1.0,
        0.0,
        0.0,
        0.0,
        0.0,
        2.220446049250313e-16,
        -1.0,
        0.0,
        0.0,
        1.0,
        2.220446049250313e-16,
        0.0,
        0.0,
        0.0,
        0.0,
        1.0
      ],
      "name": "Sketchfab_model"
    },
    {
      "children": [
        2,
        3,
        4,
        5,
        6,
        7,
        8,
        9
      ],
      "name": "RedOnion.obj.cleaner.materialmerger.gles"
    },
    {
      "mesh": 0,
      "name": "Object_2"
    },
    {
      "mesh": 1,
      "name": "Object_3"
    },
    {
      "mesh": 2,
      "name": "Object_4"
    },
    {
      "mesh": 3,
      "name": "Object_5"
    },
    {
      "mesh": 4,
      "name": "Object_6"
    },
    {
      "mesh": 5,
      "name": "Object_7"
    },
    {
      "mesh": 6,
      "name": "Object_8"
    },
    {
      "mesh": 7,
      "name": "Object_9"
    }
  ],
  "samplers": [
    {
      "magFilter": 9729,
      "minFilter": 9987,
      "wrapS": 10497,
      "wrapT": 10497
    }
  ],
  "scene": 0,
  "scenes": [
    {
      "name": "Sketchfab_Scene",
      "nodes": [
        0
      ]
    }
  ],
  "textures": [
    {
      "sampler": 0,
      "source": 0
    }
  ]
}
